999
dxfrw 0.6.3
  0
SECTION
  2
HEADER
  9
$ACADVER
  1
AC1021
  9
$DWGCODEPAGE
  3
ANSI_1252
  9
$INSBASE
 10
0
 20
0
 30
0
  9
$EXTMIN
 10
-25.96200334069368
 20
-30.125
 30
0
  9
$EXTMAX
 10
340.125
 20
218.8
 30
0
  9
$LIMMIN
 10
0
 20
0
  9
$LIMMAX
 10
420
 20
297
  9
$ORTHOMODE
 70
    0
  9
$REGENMODE
 70
    1
  9
$FILLMODE
 70
    1
  9
$QTEXTMODE
 70
    0
  9
$MIRRTEXT
 70
    0
  9
$LTSCALE
 40
1
  9
$ATTMODE
 70
    0
  9
$TEXTSIZE
 40
2.5
  9
$TRACEWID
 40
15.68
  9
$TEXTSTYLE
  7
STANDARD
  9
$CLAYER
  8
zipper
  9
$CELTYPE
  6
BYLAYER
  9
$CECOLOR
 62
  256
  9
$CELTSCALE
 40
1
  9
$DISPSILH
 70
    0
  9
$DIMSCALE
 40
1
  9
$DIMASZ
 40
0.25
  9
$DIMEXO
 40
0.0625
  9
$DIMDLI
 40
3.75
  9
$DIMRND
 40
0
  9
$DIMDLE
 40
0
  9
$DIMEXE
 40
0.125
  9
$DIMTP
 40
0
  9
$DIMTM
 40
0
  9
$DIMTXT
 40
3
  9
$DIMCEN
 40
2.5
  9
$DIMTSZ
 40
0
  9
$DIMTOL
 70
    0
  9
$DIMLIM
 70
    0
  9
$DIMTIH
 70
    0
  9
$DIMTOH
 70
    0
  9
$DIMSE1
 70
    0
  9
$DIMSE2
 70
    0
  9
$DIMTAD
 70
    1
  9
$DIMZIN
 70
    1
  9
$DIMBLK
  1

  9
$DIMASO
 70
    1
  9
$DIMSHO
 70
    1
  9
$DIMPOST
  1

  9
$DIMAPOST
  1

  9
$DIMALT
 70
    0
  9
$DIMALTD
 70
    3
  9
$DIMALTF
 40
0.03937
  9
$DIMLFAC
 40
1
  9
$DIMTOFL
 70
    1
  9
$DIMTVP
 40
0
  9
$DIMTIX
 70
    0
  9
$DIMSOXD
 70
    0
  9
$DIMSAH
 70
    0
  9
$DIMBLK1
  1

  9
$DIMBLK2
  1

  9
$DIMSTYLE
  2
STANDARD
  9
$DIMCLRD
 70
    0
  9
$DIMCLRE
 70
    0
  9
$DIMCLRT
 70
    0
  9
$DIMTFAC
 40
1
  9
$DIMGAP
 40
0.0625
  9
$DIMJUST
 70
    0
  9
$DIMSD1
 70
    0
  9
$DIMSD2
 70
    0
  9
$DIMTOLJ
 70
    0
  9
$DIMTZIN
 70
    8
  9
$DIMALTZ
 70
    0
  9
$DIMALTTZ
 70
    0
  9
$DIMUPT
 70
    0
  9
$DIMDEC
 70
    4
  9
$DIMTDEC
 70
    2
  9
$DIMALTU
 70
    2
  9
$DIMALTTD
 70
    3
  9
$DIMTXSTY
  7
standard
  9
$DIMAUNIT
 70
    0
  9
$DIMADEC
 70
    2
  9
$DIMALTRND
 40
0
  9
$DIMAZIN
 70
    0
  9
$DIMDSEP
 70
    0
  9
$DIMATFIT
 70
    3
  9
$DIMFRAC
 70
    0
  9
$DIMLDRBLK
  1
STANDARD
  9
$DIMLUNIT
 70
    2
  9
$DIMLWD
 70
   -2
  9
$DIMLWE
 70
   -2
  9
$DIMTMOVE
 70
    0
  9
$DIMFXL
 40
0.1
  9
$DIMFXLON
 70
    0
  9
$DIMJOGANG
 40
0.7854
  9
$DIMTFILL
 70
    0
  9
$DIMTFILLCLR
 70
    0
  9
$DIMARCSYM
 70
    0
  9
$DIMLTYPE
  6

  9
$DIMLTEX1
  6

  9
$DIMLTEX2
  6

  9
$LUNITS
 70
    2
  9
$LUPREC
 70
    4
  9
$SKETCHINC
 40
1
  9
$FILLETRAD
 40
0
  9
$AUNITS
 70
    0
  9
$AUPREC
 70
    2
  9
$MENU
  1
.
  9
$ELEVATION
 40
0
  9
$PELEVATION
 40
0
  9
$THICKNESS
 40
0
  9
$LIMCHECK
 70
    0
  9
$CHAMFERA
 40
0
  9
$CHAMFERB
 40
0
  9
$CHAMFERC
 40
0
  9
$CHAMFERD
 40
0
  9
$SKPOLY
 70
    0
  9
$USRTIMER
 70
    1
  9
$ANGBASE
 50
0
  9
$ANGDIR
 70
    0
  9
$PDMODE
 70
   34
  9
$PDSIZE
 40
0
  9
$PLINEWID
 40
0
  9
$SPLFRAME
 70
    0
  9
$SPLINETYPE
 70
    2
  9
$SPLINESEGS
 70
    8
  9
$HANDSEED
  5
20000
  9
$SURFTAB1
 70
    6
  9
$SURFTAB2
 70
    6
  9
$SURFTYPE
 70
    6
  9
$SURFU
 70
    6
  9
$SURFV
 70
    6
  9
$UCSBASE
  2

  9
$UCSNAME
  2

  9
$UCSORG
 10
0
 20
0
 30
0
  9
$UCSXDIR
 10
1
 20
0
 30
0
  9
$UCSYDIR
 10
0
 20
1
 30
0
  9
$UCSORTHOREF
  2

  9
$UCSORTHOVIEW
 70
    0
  9
$UCSORGTOP
 10
0
 20
0
 30
0
  9
$UCSORGBOTTOM
 10
0
 20
0
 30
0
  9
$UCSORGLEFT
 10
0
 20
0
 30
0
  9
$UCSORGRIGHT
 10
0
 20
0
 30
0
  9
$UCSORGFRONT
 10
0
 20
0
 30
0
  9
$UCSORGBACK
 10
0
 20
0
 30
0
  9
$PUCSBASE
  2

  9
$PUCSNAME
  2

  9
$PUCSORG
 10
0
 20
0
 30
0
  9
$PUCSXDIR
 10
1
 20
0
 30
0
  9
$PUCSYDIR
 10
0
 20
1
 30
0
  9
$PUCSORTHOREF
  2

  9
$PUCSORTHOVIEW
 70
    0
  9
$PUCSORGTOP
 10
0
 20
0
 30
0
  9
$PUCSORGBOTTOM
 10
0
 20
0
 30
0
  9
$PUCSORGLEFT
 10
0
 20
0
 30
0
  9
$PUCSORGRIGHT
 10
0
 20
0
 30
0
  9
$PUCSORGFRONT
 10
0
 20
0
 30
0
  9
$PUCSORGBACK
 10
0
 20
0
 30
0
  9
$USERI1
 70
    0
  9
$USERI2
 70
    0
  9
$USERI3
 70
    0
  9
$USERI4
 70
    0
  9
$USERI5
 70
    0
  9
$USERR1
 40
0
  9
$USERR2
 40
0
  9
$USERR3
 40
0
  9
$USERR4
 40
0
  9
$USERR5
 40
0
  9
$WORLDVIEW
 70
    1
  9
$SHADEDGE
 70
    3
  9
$SHADEDIF
 70
   70
  9
$TILEMODE
 70
    1
  9
$MAXACTVP
 70
   64
  9
$PINSBASE
 10
0
 20
0
 30
0
  9
$PLIMCHECK
 70
    0
  9
$PEXTMIN
 10
0
 20
0
 30
0
  9
$PEXTMAX
 10
0
 20
0
 30
0
  9
$GRIDMODE
 70
    1
  9
$SNAPSTYLE
 70
    0
  9
$GRIDUNIT
 10
0
 20
0
  9
$PLIMMIN
 10
0
 20
0
  9
$PLIMMAX
 10
2.97e-09
 20
2.1e-09
  9
$UNITMODE
 70
    0
  9
$VISRETAIN
 70
    1
  9
$PLINEGEN
 70
    0
  9
$PSLTSCALE
 70
    1
  9
$TREEDEPTH
 70
 3020
  9
$CMLSTYLE
  2
Standard
  9
$CMLJUST
 70
    0
  9
$CMLSCALE
 40
20
  9
$PROXYGRAPHICS
 70
    1
  9
$MEASUREMENT
 70
    1
  9
$CELWEIGHT
370
   -1
  9
$ENDCAPS
280
    0
  9
$JOINSTYLE
280
    0
  9
$LWDISPLAY
290
    0
  9
$INSUNITS
 70
    5
  9
$HYPERLINKBASE
  1

  9
$STYLESHEET
  1

  9
$XEDIT
290
    1
  9
$CEPSNTYPE
380
    0
  9
$PSTYLEMODE
290
    1
  9
$EXTNAMES
290
    1
  9
$PSVPSCALE
 40
1
  9
$OLESTARTUP
290
    0
  9
$SORTENTS
280
  127
  9
$INDEXCTL
280
    0
  9
$HIDETEXT
280
    1
  9
$XCLIPFRAME
290
    0
  9
$HALOGAP
280
    0
  9
$OBSCOLOR
 70
  257
  9
$OBSLTYPE
280
    0
  9
$INTERSECTIONDISPLAY
280
    0
  9
$INTERSECTIONCOLOR
 70
  257
  9
$DIMASSOC
280
    1
  9
$PROJECTNAME
  1

  9
$CAMERADISPLAY
290
    0
  9
$LENSLENGTH
 40
50
  9
$CAMERAHEIGHT
 40
0
  9
$STEPSPERSEC
 40
2
  9
$STEPSIZE
 40
50
  9
$3DDWFPREC
 40
2
  9
$PSOLWIDTH
 40
5
  9
$PSOLHEIGHT
 40
80
  9
$LOFTANG1
 40
1.570796326794897
  9
$LOFTANG2
 40
1.570796326794897
  9
$LOFTMAG1
 40
0
  9
$LOFTMAG2
 40
0
  9
$LOFTPARAM
 70
    7
  9
$LOFTNORMALS
280
    1
  9
$LATITUDE
 40
1
  9
$LONGITUDE
 40
1
  9
$NORTHDIRECTION
 40
0
  9
$TIMEZONE
 70
-8000
  9
$LIGHTGLYPHDISPLAY
280
    1
  9
$TILEMODELIGHTSYNCH
280
    1
  9
$SOLIDHIST
280
    1
  9
$SHOWHIST
280
    1
  9
$DWFFRAME
280
    2
  9
$DGNFRAME
280
    0
  9
$REALWORLDSCALE
290
    1
  9
$INTERFERECOLOR
 62
    1
  9
$CSHADOW
280
    0
  9
$SHADOWPLANELOCATION
 40
0
  0
ENDSEC
  0
SECTION
  2
CLASSES
  0
ENDSEC
  0
SECTION
  2
TABLES
  0
TABLE
  2
VPORT
  5
8
330
0
100
AcDbSymbolTable
 70
    1
  0
VPORT
  5
31
330
2
100
AcDbSymbolTableRecord
100
AcDbViewportTableRecord
  2
*ACTIVE
 70
    0
 10
0
 20
0
 11
1
 21
1
 12
361.0839843750489
 22
140.625000000019
 13
0
 23
0
 14
10
 24
10
 15
10
 25
10
 16
0
 26
0
 36
1
 17
0
 27
0
 37
0
 40
429.6875000000582
 41
1.779545454545455
 42
50
 43
0
 44
0
 50
0
 51
0
 71
    0
 72
  100
 73
    1
 74
    3
 75
    0
 76
    1
 77
    0
 78
    0
281
    0
 65
    1
110
0
120
0
130
0
111
1
121
0
131
0
112
0
122
1
132
0
 79
    0
146
0
348
10020
 60
    7
 61
    5
292
1
282
    1
141
0
142
0
 63
  250
421
3358443
  0
ENDTAB
  0
TABLE
  2
LTYPE
  5
5
330
0
100
AcDbSymbolTable
 70
    4
  0
LTYPE
  5
14
330
5
100
AcDbSymbolTableRecord
100
AcDbLinetypeTableRecord
  2
ByBlock
 70
    0
  3

 72
   65
 73
    0
 40
0
  0
LTYPE
  5
15
330
5
100
AcDbSymbolTableRecord
100
AcDbLinetypeTableRecord
  2
ByLayer
 70
    0
  3

 72
   65
 73
    0
 40
0
  0
LTYPE
  5
16
330
5
100
AcDbSymbolTableRecord
100
AcDbLinetypeTableRecord
  2
Continuous
 70
    0
  3
Solid line
 72
   65
 73
    0
 40
0
  0
LTYPE
  5
32
330
5
100
AcDbSymbolTableRecord
100
AcDbLinetypeTableRecord
  2
DOT
 70
    0
  3
Dot . . . . . . . . . . . . . . . . . . . . . .
 72
   65
 73
    2
 40
6.35
 49
0
 74
    0
 49
-6.35
 74
    0
  0
LTYPE
  5
33
330
5
100
AcDbSymbolTableRecord
100
AcDbLinetypeTableRecord
  2
DOTTINY
 70
    0
  3
Dot (.15x) .....................................
 72
   65
 73
    2
 40
0.9525
 49
0
 74
    0
 49
-0.9525
 74
    0
  0
LTYPE
  5
34
330
5
100
AcDbSymbolTableRecord
100
AcDbLinetypeTableRecord
  2
DOT2
 70
    0
  3
Dot (.5x) .....................................
 72
   65
 73
    2
 40
3.175
 49
0
 74
    0
 49
-3.175
 74
    0
  0
LTYPE
  5
35
330
5
100
AcDbSymbolTableRecord
100
AcDbLinetypeTableRecord
  2
DOTX2
 70
    0
  3
Dot (2x) .  .  .  .  .  .  .  .  .  .  .  .  .
 72
   65
 73
    2
 40
12.7
 49
0
 74
    0
 49
-12.7
 74
    0
  0
LTYPE
  5
36
330
5
100
AcDbSymbolTableRecord
100
AcDbLinetypeTableRecord
  2
DASHED
 70
    0
  3
Dashed _ _ _ _ _ _ _ _ _ _ _ _ _ _ _ _ _
 72
   65
 73
    2
 40
19.05
 49
12.7
 74
    0
 49
-6.35
 74
    0
  0
LTYPE
  5
37
330
5
100
AcDbSymbolTableRecord
100
AcDbLinetypeTableRecord
  2
DASHEDTINY
 70
    0
  3
Dashed (.15x) _ _ _ _ _ _ _ _ _ _ _ _ _ _ _ _ _
 72
   65
 73
    2
 40
2.8575
 49
1.905
 74
    0
 49
-0.9525
 74
    0
  0
LTYPE
  5
38
330
5
100
AcDbSymbolTableRecord
100
AcDbLinetypeTableRecord
  2
DASHED2
 70
    0
  3
Dashed (.5x) _ _ _ _ _ _ _ _ _ _ _ _ _ _ _ _ _
 72
   65
 73
    2
 40
9.524999999999999
 49
6.35
 74
    0
 49
-3.175
 74
    0
  0
LTYPE
  5
39
330
5
100
AcDbSymbolTableRecord
100
AcDbLinetypeTableRecord
  2
DASHEDX2
 70
    0
  3
Dashed (2x) ____  ____  ____  ____  ____  ___
 72
   65
 73
    2
 40
38.09999999999999
 49
25.4
 74
    0
 49
-12.7
 74
    0
  0
LTYPE
  5
3A
330
5
100
AcDbSymbolTableRecord
100
AcDbLinetypeTableRecord
  2
DASHDOT
 70
    0
  3
Dash dot __ . __ . __ . __ . __ . __ . __ . __
 72
   65
 73
    4
 40
25.4
 49
12.7
 74
    0
 49
-6.35
 74
    0
 49
0
 74
    0
 49
-6.35
 74
    0
  0
LTYPE
  5
3B
330
5
100
AcDbSymbolTableRecord
100
AcDbLinetypeTableRecord
  2
DASHDOTTINY
 70
    0
  3
Dash dot (.15x) _._._._._._._._._._._._._._._.
 72
   65
 73
    4
 40
3.81
 49
1.905
 74
    0
 49
-0.9525
 74
    0
 49
0
 74
    0
 49
-0.9525
 74
    0
  0
LTYPE
  5
3C
330
5
100
AcDbSymbolTableRecord
100
AcDbLinetypeTableRecord
  2
DASHDOT2
 70
    0
  3
Dash dot (.5x) _._._._._._._._._._._._._._._.
 72
   65
 73
    4
 40
12.7
 49
6.35
 74
    0
 49
-3.175
 74
    0
 49
0
 74
    0
 49
-3.175
 74
    0
  0
LTYPE
  5
3D
330
5
100
AcDbSymbolTableRecord
100
AcDbLinetypeTableRecord
  2
DASHDOTX2
 70
    0
  3
Dash dot (2x) ____  .  ____  .  ____  .  ___
 72
   65
 73
    4
 40
50.8
 49
25.4
 74
    0
 49
-12.7
 74
    0
 49
0
 74
    0
 49
-12.7
 74
    0
  0
LTYPE
  5
3E
330
5
100
AcDbSymbolTableRecord
100
AcDbLinetypeTableRecord
  2
DIVIDE
 70
    0
  3
Divide ____ . . ____ . . ____ . . ____ . . ____
 72
   65
 73
    6
 40
31.75
 49
12.7
 74
    0
 49
-6.35
 74
    0
 49
0
 74
    0
 49
-6.35
 74
    0
 49
0
 74
    0
 49
-6.35
 74
    0
  0
LTYPE
  5
3F
330
5
100
AcDbSymbolTableRecord
100
AcDbLinetypeTableRecord
  2
DIVIDETINY
 70
    0
  3
Divide (.15x) __..__..__..__..__..__..__..__.._
 72
   65
 73
    6
 40
4.7625
 49
1.905
 74
    0
 49
-0.9525
 74
    0
 49
0
 74
    0
 49
-0.9525
 74
    0
 49
0
 74
    0
 49
-0.9525
 74
    0
  0
LTYPE
  5
40
330
5
100
AcDbSymbolTableRecord
100
AcDbLinetypeTableRecord
  2
DIVIDE2
 70
    0
  3
Divide (.5x) __..__..__..__..__..__..__..__.._
 72
   65
 73
    6
 40
15.875
 49
6.35
 74
    0
 49
-3.175
 74
    0
 49
0
 74
    0
 49
-3.175
 74
    0
 49
0
 74
    0
 49
-3.175
 74
    0
  0
LTYPE
  5
41
330
5
100
AcDbSymbolTableRecord
100
AcDbLinetypeTableRecord
  2
DIVIDEX2
 70
    0
  3
Divide (2x) ________  .  .  ________  .  .  _
 72
   65
 73
    6
 40
63.5
 49
25.4
 74
    0
 49
-12.7
 74
    0
 49
0
 74
    0
 49
-12.7
 74
    0
 49
0
 74
    0
 49
-12.7
 74
    0
  0
LTYPE
  5
42
330
5
100
AcDbSymbolTableRecord
100
AcDbLinetypeTableRecord
  2
BORDER
 70
    0
  3
Border __ __ . __ __ . __ __ . __ __ . __ __ .
 72
   65
 73
    6
 40
44.45
 49
12.7
 74
    0
 49
-6.35
 74
    0
 49
12.7
 74
    0
 49
-6.35
 74
    0
 49
0
 74
    0
 49
-6.35
 74
    0
  0
LTYPE
  5
43
330
5
100
AcDbSymbolTableRecord
100
AcDbLinetypeTableRecord
  2
BORDERTINY
 70
    0
  3
Border (.15x) __.__.__.__.__.__.__.__.__.__.__.
 72
   65
 73
    6
 40
6.6675
 49
1.905
 74
    0
 49
-0.9525
 74
    0
 49
1.905
 74
    0
 49
-0.9525
 74
    0
 49
0
 74
    0
 49
-0.9525
 74
    0
  0
LTYPE
  5
44
330
5
100
AcDbSymbolTableRecord
100
AcDbLinetypeTableRecord
  2
BORDER2
 70
    0
  3
Border (.5x) __.__.__.__.__.__.__.__.__.__.__.
 72
   65
 73
    6
 40
22.225
 49
6.35
 74
    0
 49
-3.175
 74
    0
 49
6.35
 74
    0
 49
-3.175
 74
    0
 49
0
 74
    0
 49
-3.175
 74
    0
  0
LTYPE
  5
45
330
5
100
AcDbSymbolTableRecord
100
AcDbLinetypeTableRecord
  2
BORDERX2
 70
    0
  3
Border (2x) ____  ____  .  ____  ____  .  ___
 72
   65
 73
    6
 40
88.89999999999999
 49
25.4
 74
    0
 49
-12.7
 74
    0
 49
25.4
 74
    0
 49
-12.7
 74
    0
 49
0
 74
    0
 49
-12.7
 74
    0
  0
LTYPE
  5
46
330
5
100
AcDbSymbolTableRecord
100
AcDbLinetypeTableRecord
  2
CENTER
 70
    0
  3
Center ____ _ ____ _ ____ _ ____ _ ____ _ ____
 72
   65
 73
    4
 40
50.8
 49
31.75
 74
    0
 49
-6.35
 74
    0
 49
6.35
 74
    0
 49
-6.35
 74
    0
  0
LTYPE
  5
47
330
5
100
AcDbSymbolTableRecord
100
AcDbLinetypeTableRecord
  2
CENTERTINY
 70
    0
  3
Center (.15x) ___ _ ___ _ ___ _ ___ _ ___ _ ___
 72
   65
 73
    4
 40
7.619999999999999
 49
4.7625
 74
    0
 49
-0.9525
 74
    0
 49
0.9525
 74
    0
 49
-0.9525
 74
    0
  0
LTYPE
  5
48
330
5
100
AcDbSymbolTableRecord
100
AcDbLinetypeTableRecord
  2
CENTER2
 70
    0
  3
Center (.5x) ___ _ ___ _ ___ _ ___ _ ___ _ ___
 72
   65
 73
    4
 40
28.575
 49
19.05
 74
    0
 49
-3.175
 74
    0
 49
3.175
 74
    0
 49
-3.175
 74
    0
  0
LTYPE
  5
49
330
5
100
AcDbSymbolTableRecord
100
AcDbLinetypeTableRecord
  2
CENTERX2
 70
    0
  3
Center (2x) ________  __  ________  __  _____
 72
   65
 73
    4
 40
101.6
 49
63.5
 74
    0
 49
-12.7
 74
    0
 49
12.7
 74
    0
 49
-12.7
 74
    0
  0
ENDTAB
  0
TABLE
  2
LAYER
  5
2
330
0
100
AcDbSymbolTable
 70
    1
  0
LAYER
  5
10
330
2
100
AcDbSymbolTableRecord
100
AcDbLayerTableRecord
  2
0
 70
    0
 62
    7
  6
CONTINUOUS
370
    0
390
F
  0
LAYER
  5
4A
330
2
100
AcDbSymbolTableRecord
100
AcDbLayerTableRecord
  2
describtion
 70
    0
 62
  136
420
32896
  6
CONTINUOUS
370
    0
390
F
  0
LAYER
  5
4B
330
2
100
AcDbSymbolTableRecord
100
AcDbLayerTableRecord
  2
dimensions
 70
    0
 62
    3
  6
CONTINUOUS
370
   -3
390
F
  0
LAYER
  5
4C
330
2
100
AcDbSymbolTableRecord
100
AcDbLayerTableRecord
  2
floor
 70
    0
 62
    7
  6
CONTINUOUS
370
    0
390
F
  0
LAYER
  5
4D
330
2
100
AcDbSymbolTableRecord
100
AcDbLayerTableRecord
  2
folds
 70
    0
 62
    4
  6
CONTINUOUS
370
    0
390
F
  0
LAYER
  5
4E
330
2
100
AcDbSymbolTableRecord
100
AcDbLayerTableRecord
  2
help
 70
    1
 62
    2
  6
CONTINUOUS
370
    0
390
F
  0
LAYER
  5
4F
330
2
100
AcDbSymbolTableRecord
100
AcDbLayerTableRecord
  2
roof
 70
    0
 62
    7
  6
CONTINUOUS
370
    0
390
F
  0
LAYER
  5
50
330
2
100
AcDbSymbolTableRecord
100
AcDbLayerTableRecord
  2
seam allowance
 70
    0
 62
    1
  6
CONTINUOUS
370
    0
390
F
  0
LAYER
  5
51
330
2
100
AcDbSymbolTableRecord
100
AcDbLayerTableRecord
  2
zipper
 70
    0
 62
    6
  6
CONTINUOUS
370
    0
390
F
  0
ENDTAB
  0
TABLE
  2
STYLE
  5
3
330
0
100
AcDbSymbolTable
 70
    3
  0
STYLE
  5
52
330
2
100
AcDbSymbolTableRecord
100
AcDbTextStyleTableRecord
  2
Standard
 70
    0
 40
0
 41
1
 50
0
 71
    0
 42
1
  3
txt
  4

  0
ENDTAB
  0
TABLE
  2
VIEW
  5
6
330
0
100
AcDbSymbolTable
 70
    0
  0
ENDTAB
  0
TABLE
  2
UCS
  5
7
330
0
100
AcDbSymbolTable
 70
    0
  0
ENDTAB
  0
TABLE
  2
APPID
  5
9
330
0
100
AcDbSymbolTable
 70
    1
  0
APPID
  5
12
330
9
100
AcDbSymbolTableRecord
100
AcDbRegAppTableRecord
  2
ACAD
 70
    0
  0
APPID
  5
53
330
9
100
AcDbSymbolTableRecord
100
AcDbRegAppTableRecord
  2
LibreCad
 70
    0
  0
ENDTAB
  0
TABLE
  2
DIMSTYLE
  5
A
330
0
100
AcDbSymbolTable
 70
    1
100
AcDbDimStyleTable
 71
    1
  0
DIMSTYLE
105
54
330
A
100
AcDbSymbolTableRecord
100
AcDbDimStyleTableRecord
  2
Standard
 70
    0
 40
1
 41
0.25
 42
0.0625
 43
0.38
 44
0.125
 45
0
 46
0
 47
0
 48
0
140
3
141
0.09
142
0
143
25.4
144
1
145
0
146
1
147
0.0625
148
0
 71
    0
 72
    0
 73
    0
 74
    1
 75
    0
 76
    0
 77
    0
 78
    1
 79
    0
170
    0
171
    2
172
    0
173
    0
174
    0
175
    0
176
    0
177
    0
178
    0
179
    2
271
    4
272
    4
273
    2
274
    2
275
    0
276
    0
277
    2
278
    0
279
    0
280
    0
281
    0
282
    0
283
    1
284
    0
285
    0
286
    0
288
    0
289
    3
340
standard
341

371
   -2
372
   -2
  0
ENDTAB
  0
TABLE
  2
BLOCK_RECORD
  5
1
330
0
100
AcDbSymbolTable
 70
    2
  0
BLOCK_RECORD
  5
1F
330
1
100
AcDbSymbolTableRecord
100
AcDbBlockTableRecord
  2
*Model_Space
 70
    0
280
    1
281
    0
  0
BLOCK_RECORD
  5
1E
330
1
100
AcDbSymbolTableRecord
100
AcDbBlockTableRecord
  2
*Paper_Space
 70
    0
280
    1
281
    0
  0
BLOCK_RECORD
  5
55
330
1
100
AcDbSymbolTableRecord
100
AcDbBlockTableRecord
  2
*D9
 70
    0
280
    1
281
    0
  0
BLOCK_RECORD
  5
58
330
1
100
AcDbSymbolTableRecord
100
AcDbBlockTableRecord
  2
*D5
 70
    0
280
    1
281
    0
  0
BLOCK_RECORD
  5
5B
330
1
100
AcDbSymbolTableRecord
100
AcDbBlockTableRecord
  2
*D6
 70
    0
280
    1
281
    0
  0
BLOCK_RECORD
  5
5E
330
1
100
AcDbSymbolTableRecord
100
AcDbBlockTableRecord
  2
*D7
 70
    0
280
    1
281
    0
  0
BLOCK_RECORD
  5
61
330
1
100
AcDbSymbolTableRecord
100
AcDbBlockTableRecord
  2
*D2
 70
    0
280
    1
281
    0
  0
BLOCK_RECORD
  5
64
330
1
100
AcDbSymbolTableRecord
100
AcDbBlockTableRecord
  2
*D12
 70
    0
280
    1
281
    0
  0
BLOCK_RECORD
  5
67
330
1
100
AcDbSymbolTableRecord
100
AcDbBlockTableRecord
  2
*D3
 70
    0
280
    1
281
    0
  0
BLOCK_RECORD
  5
6A
330
1
100
AcDbSymbolTableRecord
100
AcDbBlockTableRecord
  2
*D13
 70
    0
280
    1
281
    0
  0
BLOCK_RECORD
  5
6D
330
1
100
AcDbSymbolTableRecord
100
AcDbBlockTableRecord
  2
*D11
 70
    0
280
    1
281
    0
  0
BLOCK_RECORD
  5
70
330
1
100
AcDbSymbolTableRecord
100
AcDbBlockTableRecord
  2
*D1
 70
    0
280
    1
281
    0
  0
BLOCK_RECORD
  5
73
330
1
100
AcDbSymbolTableRecord
100
AcDbBlockTableRecord
  2
*D10
 70
    0
280
    1
281
    0
  0
BLOCK_RECORD
  5
76
330
1
100
AcDbSymbolTableRecord
100
AcDbBlockTableRecord
  2
*D4
 70
    0
280
    1
281
    0
  0
BLOCK_RECORD
  5
79
330
1
100
AcDbSymbolTableRecord
100
AcDbBlockTableRecord
  2
*D8
 70
    0
280
    1
281
    0
  0
ENDTAB
  0
ENDSEC
  0
SECTION
  2
BLOCKS
  0
BLOCK
  5
20
330
1F
100
AcDbEntity
  8
0
100
AcDbBlockBegin
  2
*Model_Space
 70
    0
 10
0
 20
0
 30
0
  3
*Model_Space
  1

  0
ENDBLK
  5
21
330
1F
100
AcDbEntity
  8
0
100
AcDbBlockEnd
  0
BLOCK
  5
1C
330
1B
100
AcDbEntity
  8
0
100
AcDbBlockBegin
  2
*Paper_Space
 70
    0
 10
0
 20
0
 30
0
  3
*Paper_Space
  1

  0
ENDBLK
  5
1D
330
1F
100
AcDbEntity
  8
0
100
AcDbBlockEnd
  0
BLOCK
  5
56
330
55
100
AcDbEntity
  8
0
100
AcDbBlockBegin
  2
*D9
 70
    1
 10
0
 20
0
  3
*D9
  1

  0
LINE
  5
7C
100
AcDbEntity
  8
dimensions
  6
ByBlock
 62
    0
370
   -2
100
AcDbLine
 10
262
 20
200
 11
148
 21
200
  0
SOLID
  5
7D
100
AcDbEntity
  8
dimensions
  6
ByBlock
 62
    0
370
   -2
100
AcDbTrace
 10
262
 20
200
 30
0
 11
261.75
 21
199.9583715342227
 31
0
 12
261.75
 22
200.0416284657773
 32
0
 13
261.75
 23
200.0416284657773
 33
0
  0
SOLID
  5
7E
100
AcDbEntity
  8
dimensions
  6
ByBlock
 62
    0
370
   -2
100
AcDbTrace
 10
148
 20
200
 30
0
 11
148.25
 21
200.0416284657773
 31
0
 12
148.25
 22
199.9583715342227
 32
0
 13
148.25
 23
199.9583715342227
 33
0
  0
MTEXT
  5
7F
100
AcDbEntity
  8
dimensions
  6
CONTINUOUS
 62
    0
370
   -2
100
AcDbMText
 10
205
 20
201.5625
 30
0
 40
3
 41
15.33333333333333
 71
    5
 72
    1
  1
114.0000
  7
standard
210
0
220
0
230
1
 50
360
 73
    2
 44
1
  0
LINE
  5
80
100
AcDbEntity
  8
dimensions
  6
ByBlock
 62
    0
370
   -2
100
AcDbLine
 10
262
 20
183.0625
 11
262
 21
200.125
  0
LINE
  5
81
100
AcDbEntity
  8
dimensions
  6
ByBlock
 62
    0
370
   -2
100
AcDbLine
 10
148
 20
183.0625
 11
148
 21
200.125
  0
ENDBLK
  5
57
330
55
100
AcDbEntity
  8
0
100
AcDbBlockEnd
  0
BLOCK
  5
59
330
58
100
AcDbEntity
  8
0
100
AcDbBlockBegin
  2
*D5
 70
    1
 10
0
 20
0
  3
*D5
  1

  0
LINE
  5
82
100
AcDbEntity
  8
dimensions
  6
ByBlock
 62
    0
370
   -2
100
AcDbLine
 10
88.37890625000348
 20
180
 11
88.37890625000348
 21
6.821210263296963e-14
  0
SOLID
  5
83
100
AcDbEntity
  8
dimensions
  6
ByBlock
 62
    0
370
   -2
100
AcDbTrace
 10
88.37890625000348
 20
180
 30
0
 11
88.42053471578076
 21
179.75
 31
0
 12
88.3372777842262
 22
179.75
 32
0
 13
88.3372777842262
 23
179.75
 33
0
  0
SOLID
  5
84
100
AcDbEntity
  8
dimensions
  6
ByBlock
 62
    0
370
   -2
100
AcDbTrace
 10
88.37890625000348
 20
6.821210263296963e-14
 30
0
 11
88.3372777842262
 21
0.2500000000000682
 31
0
 12
88.42053471578076
 22
0.2500000000000682
 32
0
 13
88.42053471578076
 23
0.2500000000000682
 33
0
  0
MTEXT
  5
85
100
AcDbEntity
  8
dimensions
  6
CONTINUOUS
 62
    0
370
   -2
100
AcDbMText
 10
86.81640625000348
 20
90.00000000000003
 30
0
 40
3
 41
15.66666666666667
 71
    5
 72
    1
  1
180.0000
  7
standard
210
0
220
0
230
1
 50
90
 73
    2
 44
1
  0
LINE
  5
86
100
AcDbEntity
  8
dimensions
  6
ByBlock
 62
    0
370
   -2
100
AcDbLine
 10
65.06249999999997
 20
180
 11
88.50390625000348
 21
180
  0
LINE
  5
87
100
AcDbEntity
  8
dimensions
  6
ByBlock
 62
    0
370
   -2
100
AcDbLine
 10
50.06250000000001
 20
6.821210263296963e-14
 11
88.50390625000348
 21
6.821210263296963e-14
  0
ENDBLK
  5
5A
330
58
100
AcDbEntity
  8
0
100
AcDbBlockEnd
  0
BLOCK
  5
5C
330
5B
100
AcDbEntity
  8
0
100
AcDbBlockBegin
  2
*D6
 70
    1
 10
0
 20
0
  3
*D6
  1

  0
LINE
  5
88
100
AcDbEntity
  8
dimensions
  6
ByBlock
 62
    0
370
   -2
100
AcDbLine
 10
49.99480965750915
 20
-0.06228410989030497
 11
49.17858483225964
 21
-9.856982012884279
  0
LINE
  5
89
100
AcDbEntity
  8
dimensions
  6
ByBlock
 62
    0
370
   -2
100
AcDbLine
 10
59.96026723995794
 20
-0.8927389084277065
 11
59.14404241470842
 21
-10.68743681142168
  0
LINE
  5
8A
100
AcDbEntity
  8
dimensions
  6
ByBlock
 62
    0
370
   -2
100
AcDbLine
 10
49.18896551724136
 20
-9.732413793103669
 11
59.15442309969014
 21
-10.56286859164107
  0
SOLID
  5
8B
100
AcDbEntity
  8
dimensions
  6
ByBlock
 62
    0
370
   -2
100
AcDbTrace
 10
49.18896551724136
 20
-9.732413793103669
 30
0
 11
49.44155901271863
 21
-9.71169049207451
 31
0
 12
49.43464490088652
 22
-9.794659834059699
 32
0
 13
49.43464490088652
 23
-9.794659834059699
 33
0
  0
SOLID
  5
8C
100
AcDbEntity
  8
dimensions
  6
ByBlock
 62
    0
370
   -2
100
AcDbTrace
 10
59.15442309969014
 20
-10.56286859164107
 30
0
 11
58.90182960421287
 21
-10.58359189267023
 31
0
 12
58.90874371604497
 22
-10.50062255068504
 32
0
 13
58.90874371604497
 23
-10.50062255068504
 33
0
  0
MTEXT
  5
8D
100
AcDbEntity
  8
dimensions
  6
CONTINUOUS
 62
    0
370
   -2
100
AcDbMText
 10
65.94858142022424
 20
-10.06286559835501
 30
0
 40
3
 41
13.33333333333333
 71
    5
 72
    1
  1
10.0000
  7
standard
210
0
220
0
230
1
 50
355.2363583092738
 73
    2
 44
1
  0
ENDBLK
  5
5D
330
5B
100
AcDbEntity
  8
0
100
AcDbBlockEnd
  0
BLOCK
  5
5F
330
5E
100
AcDbEntity
  8
0
100
AcDbBlockBegin
  2
*D7
 70
    1
 10
0
 20
0
  3
*D7
  1

  0
LINE
  5
8E
100
AcDbEntity
  8
dimensions
  6
ByBlock
 62
    0
370
   -2
100
AcDbLine
 10
280
 20
-8
 11
330
 21
-8
  0
SOLID
  5
8F
100
AcDbEntity
  8
dimensions
  6
ByBlock
 62
    0
370
   -2
100
AcDbTrace
 10
280
 20
-8
 30
0
 11
280.25
 21
-7.958371534222716
 31
0
 12
280.25
 22
-8.041628465777285
 32
0
 13
280.25
 23
-8.041628465777285
 33
0
  0
SOLID
  5
90
100
AcDbEntity
  8
dimensions
  6
ByBlock
 62
    0
370
   -2
100
AcDbTrace
 10
330
 20
-8
 30
0
 11
329.75
 21
-8.041628465777285
 31
0
 12
329.75
 22
-7.958371534222716
 32
0
 13
329.75
 23
-7.958371534222716
 33
0
  0
MTEXT
  5
91
100
AcDbEntity
  8
dimensions
  6
CONTINUOUS
 62
    0
370
   -2
100
AcDbMText
 10
305
 20
-6.4375
 30
0
 40
3
 41
14.00000000000018
 71
    5
 72
    1
  1
50.0000
  7
standard
210
0
220
0
230
1
 50
0
 73
    2
 44
1
  0
LINE
  5
92
100
AcDbEntity
  8
dimensions
  6
ByBlock
 62
    0
370
   -2
100
AcDbLine
 10
280
 20
-0.0625
 11
280
 21
-8.125
  0
LINE
  5
93
100
AcDbEntity
  8
dimensions
  6
ByBlock
 62
    0
370
   -2
100
AcDbLine
 10
330
 20
-0.0625
 11
330
 21
-8.125
  0
ENDBLK
  5
60
330
5E
100
AcDbEntity
  8
0
100
AcDbBlockEnd
  0
BLOCK
  5
62
330
61
100
AcDbEntity
  8
0
100
AcDbBlockBegin
  2
*D2
 70
    1
 10
0
 20
0
  3
*D2
  1

  0
LINE
  5
94
100
AcDbEntity
  8
dimensions
  6
ByBlock
 62
    0
370
   -2
100
AcDbLine
 10
-6.556191779173681e-17
 20
0.0625
 11
-7.211810957091267e-15
 21
6.875000000000208
  0
LINE
  5
95
100
AcDbEntity
  8
dimensions
  6
ByBlock
 62
    0
370
   -2
100
AcDbLine
 10
50.00000000000001
 20
0.06250000000006821
 11
50
 21
6.875000000000276
  0
LINE
  5
96
100
AcDbEntity
  8
dimensions
  6
ByBlock
 62
    0
370
   -2
100
AcDbLine
 10
-7.080687121507793e-15
 20
6.750000000000208
 11
50
 21
6.750000000000276
  0
SOLID
  5
97
100
AcDbEntity
  8
dimensions
  6
ByBlock
 62
    0
370
   -2
100
AcDbTrace
 10
-7.080687121507793e-15
 20
6.750000000000208
 30
0
 11
0.2499999999999929
 21
6.791628465777492
 31
0
 12
0.249999999999993
 22
6.708371534222924
 32
0
 13
0.249999999999993
 23
6.708371534222924
 33
0
  0
SOLID
  5
98
100
AcDbEntity
  8
dimensions
  6
ByBlock
 62
    0
370
   -2
100
AcDbTrace
 10
50
 20
6.750000000000276
 30
0
 11
49.75
 21
6.708371534222992
 31
0
 12
49.75
 22
6.79162846577756
 32
0
 13
49.75
 23
6.79162846577756
 33
0
  0
MTEXT
  5
99
100
AcDbEntity
  8
dimensions
  6
CONTINUOUS
 62
    0
370
   -2
100
AcDbMText
 10
24.99999999999999
 20
8.312500000000242
 30
0
 40
3
 41
14.00000000000018
 71
    5
 72
    1
  1
50.0000
  7
standard
210
0
220
0
230
1
 50
7.63333123551244e-14
 73
    2
 44
1
  0
ENDBLK
  5
63
330
61
100
AcDbEntity
  8
0
100
AcDbBlockEnd
  0
BLOCK
  5
65
330
64
100
AcDbEntity
  8
0
100
AcDbBlockBegin
  2
*D12
 70
    1
 10
0
 20
0
  3
*D12
  1

  0
LINE
  5
9A
100
AcDbEntity
  8
dimensions
  6
ByBlock
 62
    0
370
   -2
100
AcDbLine
 10
270
 20
183
 11
270
 21
0
  0
SOLID
  5
9B
100
AcDbEntity
  8
dimensions
  6
ByBlock
 62
    0
370
   -2
100
AcDbTrace
 10
270
 20
183
 30
0
 11
270.0416284657773
 21
182.75
 31
0
 12
269.9583715342227
 22
182.75
 32
0
 13
269.9583715342227
 23
182.75
 33
0
  0
SOLID
  5
9C
100
AcDbEntity
  8
dimensions
  6
ByBlock
 62
    0
370
   -2
100
AcDbTrace
 10
270
 20
0
 30
0
 11
269.9583715342227
 21
0.25
 31
0
 12
270.0416284657773
 22
0.25
 32
0
 13
270.0416284657773
 23
0.25
 33
0
  0
MTEXT
  5
9D
100
AcDbEntity
  8
dimensions
  6
CONTINUOUS
 62
    0
370
   -2
100
AcDbMText
 10
268.4375
 20
91.5
 30
0
 40
3
 41
15.66666666666685
 71
    5
 72
    1
  1
183.0000
  7
standard
210
0
220
0
230
1
 50
90
 73
    2
 44
1
  0
LINE
  5
9E
100
AcDbEntity
  8
dimensions
  6
ByBlock
 62
    0
370
   -2
100
AcDbLine
 10
262.0625
 20
183
 11
270.125
 21
183
  0
LINE
  5
9F
100
AcDbEntity
  8
dimensions
  6
ByBlock
 62
    0
370
   -2
100
AcDbLine
 10
240.0625
 20
0
 11
270.125
 21
0
  0
ENDBLK
  5
66
330
64
100
AcDbEntity
  8
0
100
AcDbBlockEnd
  0
BLOCK
  5
68
330
67
100
AcDbEntity
  8
0
100
AcDbBlockBegin
  2
*D3
 70
    1
 10
0
 20
0
  3
*D3
  1

  0
LINE
  5
A0
100
AcDbEntity
  8
dimensions
  6
ByBlock
 62
    0
370
   -2
100
AcDbLine
 10
88.37890625000348
 20
210
 11
88.37890625000348
 21
180.0000000000001
  0
SOLID
  5
A1
100
AcDbEntity
  8
dimensions
  6
ByBlock
 62
    0
370
   -2
100
AcDbTrace
 10
88.37890625000348
 20
210
 30
0
 11
88.42053471578076
 21
209.75
 31
0
 12
88.3372777842262
 22
209.75
 32
0
 13
88.3372777842262
 23
209.75
 33
0
  0
SOLID
  5
A2
100
AcDbEntity
  8
dimensions
  6
ByBlock
 62
    0
370
   -2
100
AcDbTrace
 10
88.37890625000348
 20
180.0000000000001
 30
0
 11
88.3372777842262
 21
180.2500000000001
 31
0
 12
88.42053471578076
 22
180.2500000000001
 32
0
 13
88.42053471578076
 23
180.2500000000001
 33
0
  0
MTEXT
  5
A3
100
AcDbEntity
  8
dimensions
  6
CONTINUOUS
 62
    0
370
   -2
100
AcDbMText
 10
86.81640625000348
 20
195
 30
0
 40
3
 41
14.00000000000018
 71
    5
 72
    1
  1
30.0000
  7
standard
210
0
220
0
230
1
 50
90
 73
    2
 44
1
  0
LINE
  5
A4
100
AcDbEntity
  8
dimensions
  6
ByBlock
 62
    0
370
   -2
100
AcDbLine
 10
25.0625
 20
210
 11
88.50390625000348
 21
210
  0
LINE
  5
A5
100
AcDbEntity
  8
dimensions
  6
ByBlock
 62
    0
370
   -2
100
AcDbLine
 10
65.0625
 20
180.0000000000001
 11
88.50390625000348
 21
180.0000000000001
  0
ENDBLK
  5
69
330
67
100
AcDbEntity
  8
0
100
AcDbBlockEnd
  0
BLOCK
  5
6B
330
6A
100
AcDbEntity
  8
0
100
AcDbBlockBegin
  2
*D13
 70
    1
 10
0
 20
0
  3
*D13
  1

  0
LINE
  5
A6
100
AcDbEntity
  8
dimensions
  6
ByBlock
 62
    0
370
   -2
100
AcDbLine
 10
270
 20
0
 11
270
 21
-10
  0
SOLID
  5
A7
100
AcDbEntity
  8
dimensions
  6
ByBlock
 62
    0
370
   -2
100
AcDbTrace
 10
270
 20
0
 30
0
 11
270.0416284657773
 21
-0.25
 31
0
 12
269.9583715342227
 22
-0.25
 32
0
 13
269.9583715342227
 23
-0.25
 33
0
  0
SOLID
  5
A8
100
AcDbEntity
  8
dimensions
  6
ByBlock
 62
    0
370
   -2
100
AcDbTrace
 10
270
 20
-10
 30
0
 11
269.9583715342227
 21
-9.75
 31
0
 12
270.0416284657773
 22
-9.75
 32
0
 13
270.0416284657773
 23
-9.75
 33
0
  0
MTEXT
  5
A9
100
AcDbEntity
  8
dimensions
  6
CONTINUOUS
 62
    0
370
   -2
100
AcDbMText
 10
268.4375
 20
6.729166666666666
 30
0
 40
3
 41
13.33333333333333
 71
    5
 72
    1
  1
10.0000
  7
standard
210
0
220
0
230
1
 50
90
 73
    2
 44
1
  0
LINE
  5
AA
100
AcDbEntity
  8
dimensions
  6
ByBlock
 62
    0
370
   -2
100
AcDbLine
 10
230.0625
 20
0
 11
270.125
 21
0
  0
LINE
  5
AB
100
AcDbEntity
  8
dimensions
  6
ByBlock
 62
    0
370
   -2
100
AcDbLine
 10
230.0625
 20
-10
 11
270.125
 21
-10
  0
ENDBLK
  5
6C
330
6A
100
AcDbEntity
  8
0
100
AcDbBlockEnd
  0
BLOCK
  5
6E
330
6D
100
AcDbEntity
  8
0
100
AcDbBlockBegin
  2
*D11
 70
    1
 10
0
 20
0
  3
*D11
  1

  0
LINE
  5
AC
100
AcDbEntity
  8
dimensions
  6
ByBlock
 62
    0
370
   -2
100
AcDbLine
 10
230
 20
-30
 11
240
 21
-30
  0
SOLID
  5
AD
100
AcDbEntity
  8
dimensions
  6
ByBlock
 62
    0
370
   -2
100
AcDbTrace
 10
230
 20
-30
 30
0
 11
230.25
 21
-29.95837153422272
 31
0
 12
230.25
 22
-30.04162846577728
 32
0
 13
230.25
 23
-30.04162846577728
 33
0
  0
SOLID
  5
AE
100
AcDbEntity
  8
dimensions
  6
ByBlock
 62
    0
370
   -2
100
AcDbTrace
 10
240
 20
-30
 30
0
 11
239.75
 21
-30.04162846577728
 31
0
 12
239.75
 22
-29.95837153422272
 32
0
 13
239.75
 23
-29.95837153422272
 33
0
  0
MTEXT
  5
AF
100
AcDbEntity
  8
dimensions
  6
CONTINUOUS
 62
    0
370
   -2
100
AcDbMText
 10
246.7291666666667
 20
-28.4375
 30
0
 40
3
 41
13.33333333333333
 71
    5
 72
    1
  1
10.0000
  7
standard
210
0
220
0
230
1
 50
0
 73
    2
 44
1
  0
LINE
  5
B0
100
AcDbEntity
  8
dimensions
  6
ByBlock
 62
    0
370
   -2
100
AcDbLine
 10
230
 20
-0.0625
 11
230
 21
-30.125
  0
LINE
  5
B1
100
AcDbEntity
  8
dimensions
  6
ByBlock
 62
    0
370
   -2
100
AcDbLine
 10
240
 20
-0.0625
 11
240
 21
-30.125
  0
ENDBLK
  5
6F
330
6D
100
AcDbEntity
  8
0
100
AcDbBlockEnd
  0
BLOCK
  5
71
330
70
100
AcDbEntity
  8
0
100
AcDbBlockBegin
  2
*D1
 70
    1
 10
0
 20
0
  3
*D1
  1

  0
LINE
  5
B2
100
AcDbEntity
  8
dimensions
  6
ByBlock
 62
    0
370
   -2
100
AcDbLine
 10
-15.00000000000009
 20
179.9375
 11
-15.00000000000009
 21
165.8906250000061
  0
LINE
  5
B3
100
AcDbEntity
  8
dimensions
  6
ByBlock
 62
    0
370
   -2
100
AcDbLine
 10
65
 20
179.9375
 11
65
 21
165.8906250000061
  0
LINE
  5
B4
100
AcDbEntity
  8
dimensions
  6
ByBlock
 62
    0
370
   -2
100
AcDbLine
 10
-15.00000000000009
 20
166.0156250000061
 11
65
 21
166.0156250000061
  0
SOLID
  5
B5
100
AcDbEntity
  8
dimensions
  6
ByBlock
 62
    0
370
   -2
100
AcDbTrace
 10
-15.00000000000009
 20
166.0156250000061
 30
0
 11
-14.75000000000009
 21
166.0572534657833
 31
0
 12
-14.75000000000009
 22
165.9739965342288
 32
0
 13
-14.75000000000009
 23
165.9739965342288
 33
0
  0
SOLID
  5
B6
100
AcDbEntity
  8
dimensions
  6
ByBlock
 62
    0
370
   -2
100
AcDbTrace
 10
65
 20
166.0156250000061
 30
0
 11
64.75
 21
165.9739965342288
 31
0
 12
64.75
 22
166.0572534657833
 32
0
 13
64.75
 23
166.0572534657833
 33
0
  0
MTEXT
  5
B7
100
AcDbEntity
  8
dimensions
  6
CONTINUOUS
 62
    0
370
   -2
100
AcDbMText
 10
24.99999999999996
 20
167.5781250000061
 30
0
 40
3
 41
14
 71
    5
 72
    1
  1
80.0000
  7
standard
210
0
220
0
230
1
 50
0
 73
    2
 44
1
  0
ENDBLK
  5
72
330
70
100
AcDbEntity
  8
0
100
AcDbBlockEnd
  0
BLOCK
  5
74
330
73
100
AcDbEntity
  8
0
100
AcDbBlockBegin
  2
*D10
 70
    1
 10
0
 20
0
  3
*D10
  1

  0
LINE
  5
B8
100
AcDbEntity
  8
dimensions
  6
ByBlock
 62
    0
370
   -2
100
AcDbLine
 10
180
 20
-30
 11
230
 21
-30
  0
SOLID
  5
B9
100
AcDbEntity
  8
dimensions
  6
ByBlock
 62
    0
370
   -2
100
AcDbTrace
 10
180
 20
-30
 30
0
 11
180.25
 21
-29.95837153422272
 31
0
 12
180.25
 22
-30.04162846577728
 32
0
 13
180.25
 23
-30.04162846577728
 33
0
  0
SOLID
  5
BA
100
AcDbEntity
  8
dimensions
  6
ByBlock
 62
    0
370
   -2
100
AcDbTrace
 10
230
 20
-30
 30
0
 11
229.75
 21
-30.04162846577728
 31
0
 12
229.75
 22
-29.95837153422272
 32
0
 13
229.75
 23
-29.95837153422272
 33
0
  0
MTEXT
  5
BB
100
AcDbEntity
  8
dimensions
  6
CONTINUOUS
 62
    0
370
   -2
100
AcDbMText
 10
205
 20
-28.4375
 30
0
 40
3
 41
14.00000000000018
 71
    5
 72
    1
  1
50.0000
  7
standard
210
0
220
0
230
1
 50
0
 73
    2
 44
1
  0
LINE
  5
BC
100
AcDbEntity
  8
dimensions
  6
ByBlock
 62
    0
370
   -2
100
AcDbLine
 10
180
 20
-10.0625
 11
180
 21
-30.125
  0
LINE
  5
BD
100
AcDbEntity
  8
dimensions
  6
ByBlock
 62
    0
370
   -2
100
AcDbLine
 10
230
 20
-10.0625
 11
230
 21
-30.125
  0
ENDBLK
  5
75
330
73
100
AcDbEntity
  8
0
100
AcDbBlockEnd
  0
BLOCK
  5
77
330
76
100
AcDbEntity
  8
0
100
AcDbBlockBegin
  2
*D4
 70
    1
 10
0
 20
0
  3
*D4
  1

  0
LINE
  5
BE
100
AcDbEntity
  8
dimensions
  6
ByBlock
 62
    0
370
   -2
100
AcDbLine
 10
95.70312500000378
 20
210
 11
95.70312500000378
 21
6.821210263296963e-14
  0
SOLID
  5
BF
100
AcDbEntity
  8
dimensions
  6
ByBlock
 62
    0
370
   -2
100
AcDbTrace
 10
95.70312500000378
 20
210
 30
0
 11
95.74475346578106
 21
209.75
 31
0
 12
95.6614965342265
 22
209.75
 32
0
 13
95.6614965342265
 23
209.75
 33
0
  0
SOLID
  5
C0
100
AcDbEntity
  8
dimensions
  6
ByBlock
 62
    0
370
   -2
100
AcDbTrace
 10
95.70312500000378
 20
6.821210263296963e-14
 30
0
 11
95.6614965342265
 21
0.2500000000000682
 31
0
 12
95.74475346578106
 22
0.2500000000000682
 32
0
 13
95.74475346578106
 23
0.2500000000000682
 33
0
  0
MTEXT
  5
C1
100
AcDbEntity
  8
dimensions
  6
CONTINUOUS
 62
    0
370
   -2
100
AcDbMText
 10
94.14062500000378
 20
105
 30
0
 40
3
 41
15.66666666666667
 71
    5
 72
    1
  1
210.0000
  7
standard
210
0
220
0
230
1
 50
90
 73
    2
 44
1
  0
LINE
  5
C2
100
AcDbEntity
  8
dimensions
  6
ByBlock
 62
    0
370
   -2
100
AcDbLine
 10
25.0625
 20
210
 11
95.82812500000378
 21
210
  0
LINE
  5
C3
100
AcDbEntity
  8
dimensions
  6
ByBlock
 62
    0
370
   -2
100
AcDbLine
 10
50.06250000000001
 20
6.821210263296963e-14
 11
95.82812500000378
 21
6.821210263296963e-14
  0
ENDBLK
  5
78
330
76
100
AcDbEntity
  8
0
100
AcDbBlockEnd
  0
BLOCK
  5
7A
330
79
100
AcDbEntity
  8
0
100
AcDbBlockBegin
  2
*D8
 70
    1
 10
0
 20
0
  3
*D8
  1

  0
LINE
  5
C4
100
AcDbEntity
  8
dimensions
  6
ByBlock
 62
    0
370
   -2
100
AcDbLine
 10
340
 20
0
 11
340
 21
57
  0
SOLID
  5
C5
100
AcDbEntity
  8
dimensions
  6
ByBlock
 62
    0
370
   -2
100
AcDbTrace
 10
340
 20
0
 30
0
 11
339.9583715342227
 21
0.25
 31
0
 12
340.0416284657773
 22
0.25
 32
0
 13
340.0416284657773
 23
0.25
 33
0
  0
SOLID
  5
C6
100
AcDbEntity
  8
dimensions
  6
ByBlock
 62
    0
370
   -2
100
AcDbTrace
 10
340
 20
57
 30
0
 11
340.0416284657773
 21
56.75
 31
0
 12
339.9583715342227
 22
56.75
 32
0
 13
339.9583715342227
 23
56.75
 33
0
  0
MTEXT
  5
C7
100
AcDbEntity
  8
dimensions
  6
CONTINUOUS
 62
    0
370
   -2
100
AcDbMText
 10
338.4375
 20
28.5
 30
0
 40
3
 41
14.00000000000018
 71
    5
 72
    1
  1
57.0000
  7
standard
210
0
220
0
230
1
 50
90
 73
    2
 44
1
  0
LINE
  5
C8
100
AcDbEntity
  8
dimensions
  6
ByBlock
 62
    0
370
   -2
100
AcDbLine
 10
330.0625
 20
0
 11
340.125
 21
0
  0
LINE
  5
C9
100
AcDbEntity
  8
dimensions
  6
ByBlock
 62
    0
370
   -2
100
AcDbLine
 10
330.0625
 20
57
 11
340.125
 21
57
  0
ENDBLK
  5
7B
330
79
100
AcDbEntity
  8
0
100
AcDbBlockEnd
  0
ENDSEC
  0
SECTION
  2
ENTITIES
  0
LINE
  5
CA
100
AcDbEntity
  8
floor
  6
ByLayer
 62
  256
370
   -1
100
AcDbLine
 10
59.96545758244879
 20
-0.8304547985374023
 11
74.96545758244879
 21
179.1695452014626
  0
LINE
  5
CB
100
AcDbEntity
  8
floor
  6
ByLayer
 62
  256
370
   -1
100
AcDbLine
 10
71
 20
188
 11
31
 21
218
  0
LINE
  5
CC
100
AcDbEntity
  8
floor
  6
ByLayer
 62
  256
370
   -1
100
AcDbLine
 10
19
 20
218
 11
-21
 21
188
  0
LINE
  5
CD
100
AcDbEntity
  8
floor
  6
ByLayer
 62
  256
370
   -1
100
AcDbLine
 10
-24.9654575824488
 20
179.1695452014626
 11
-9.965457582448797
 21
-0.8304547985373874
  0
LINE
  5
CE
100
AcDbEntity
  8
floor
  6
ByLayer
 62
  256
370
   -1
100
AcDbLine
 10
-1.83697019872103e-15
 20
-10
 11
50
 21
-10
  0
LINE
  5
CF
100
AcDbEntity
  8
floor
  6
ByLayer
 62
  256
370
   -1
100
AcDbLine
 10
-6.123233995736766e-16
 20
-10
 11
0
 21
0
  0
LINE
  5
D0
100
AcDbEntity
  8
floor
  6
ByLayer
 62
  256
370
   -1
100
AcDbLine
 10
50.00000000000001
 20
-10
 11
50.00000000000001
 21
0
  0
LINE
  5
D1
100
AcDbEntity
  8
floor
  6
ByLayer
 62
  256
370
   -1
100
AcDbLine
 10
-9.965457582448797
 20
-0.8304547985373973
 11
0
 21
0
  0
LINE
  5
D2
100
AcDbEntity
  8
floor
  6
ByLayer
 62
  256
370
   -1
100
AcDbLine
 10
59.96545758244879
 20
-0.8304547985374011
 11
50.00000000000001
 21
0
  0
LINE
  5
D3
100
AcDbEntity
  8
floor
  6
ByLayer
 62
  256
370
   -1
100
AcDbLine
 10
-21
 20
188
 11
-15.00000000000006
 21
180
  0
LINE
  5
D4
100
AcDbEntity
  8
floor
  6
ByLayer
 62
  256
370
   -1
100
AcDbLine
 10
-24.9654575824488
 20
179.1695452014626
 11
-15
 21
180
  0
LINE
  5
D5
100
AcDbEntity
  8
floor
  6
ByLayer
 62
  256
370
   -1
100
AcDbLine
 10
31
 20
218
 11
25
 21
210
  0
LINE
  5
D6
100
AcDbEntity
  8
floor
  6
ByLayer
 62
  256
370
   -1
100
AcDbLine
 10
19
 20
218
 11
24.99999999999994
 21
210
  0
LINE
  5
D7
100
AcDbEntity
  8
floor
  6
ByLayer
 62
  256
370
   -1
100
AcDbLine
 10
71
 20
188
 11
64.99999999999997
 21
180
  0
LINE
  5
D8
100
AcDbEntity
  8
floor
  6
ByLayer
 62
  256
370
   -1
100
AcDbLine
 10
74.96545758244879
 20
179.1695452014626
 11
65
 21
180
  0
DIMENSION
  5
D9
100
AcDbEntity
  8
dimensions
  6
ByLayer
 62
  256
370
   -1
100
AcDbDimension
  2
*D1
 10
65
 20
166.0156250000061
 30
0
 11
24.99999999999996
 21
167.5781250000061
 31
0
 70
   33
 71
    5
  3
Standard
 53
0
210
0
220
0
230
1
100
AcDbAlignedDimension
 13
-15.00000000000009
 23
180
 33
0
 14
65
 24
180
 34
0
  0
DIMENSION
  5
DA
100
AcDbEntity
  8
dimensions
  6
ByLayer
 62
  256
370
   -1
100
AcDbDimension
  2
*D2
 10
50
 20
6.750000000000276
 30
0
 11
24.99999999999999
 21
8.312500000000242
 31
0
 70
   33
 71
    5
  3
Standard
 53
0
210
0
220
0
230
1
100
AcDbAlignedDimension
 13
0
 23
0
 33
0
 14
50.00000000000001
 24
6.821210263296963e-14
 34
0
  0
DIMENSION
  5
DB
100
AcDbEntity
  8
dimensions
  6
ByLayer
 62
  256
370
   -1
100
AcDbDimension
  2
*D3
 10
88.37890625000348
 20
180.0000000000001
 30
0
 11
86.81640625000348
 21
195
 31
0
 70
   32
 71
    5
  3
Standard
 53
0
210
0
220
0
230
1
100
AcDbAlignedDimension
 13
25
 23
210
 33
0
 14
65
 24
180.0000000000001
 34
0
 50
90
100
AcDbRotatedDimension
  0
DIMENSION
  5
DC
100
AcDbEntity
  8
dimensions
  6
ByLayer
 62
  256
370
   -1
100
AcDbDimension
  2
*D4
 10
95.70312500000378
 20
6.261508405874104e-14
 30
0
 11
94.14062500000378
 21
105
 31
0
 70
   32
 71
    5
  3
Standard
 53
0
210
0
220
0
230
1
100
AcDbAlignedDimension
 13
25
 23
210
 33
0
 14
50.00000000000001
 24
6.821210263296963e-14
 34
0
 50
90
100
AcDbRotatedDimension
  0
DIMENSION
  5
DD
100
AcDbEntity
  8
dimensions
  6
ByLayer
 62
  256
370
   -1
100
AcDbDimension
  2
*D5
 10
88.37890625000348
 20
6.351204216358531e-14
 30
0
 11
86.81640625000348
 21
90.00000000000003
 31
0
 70
   32
 71
    5
  3
Standard
 53
0
210
0
220
0
230
1
100
AcDbAlignedDimension
 13
64.99999999999997
 23
180
 33
0
 14
50.00000000000001
 24
6.821210263296963e-14
 34
0
 50
90
100
AcDbRotatedDimension
  0
DIMENSION
  5
DE
100
AcDbEntity
  8
dimensions
  6
ByLayer
 62
  256
370
   -1
100
AcDbDimension
  2
*D6
 10
59.15442309969014
 20
-10.56286859164107
 30
0
 11
54.25993013081035
 21
-9.088811324237184
 31
0
 70
   33
 71
    5
  3
Standard
 53
0
210
0
220
0
230
1
100
AcDbAlignedDimension
 13
50.00000000000001
 23
0
 33
0
 14
59.96545758244879
 24
-0.8304547985374016
 34
0
  0
POINT
  5
DF
100
AcDbEntity
  8
roof
  6
ByLayer
 62
  256
370
   -1
100
AcDbPoint
 10
230
 20
0
  0
LINE
  5
E0
100
AcDbEntity
  8
roof
  6
ByLayer
 62
  256
370
   -1
100
AcDbLine
 10
262
 20
183
 11
148
 21
183
  0
LINE
  5
E1
100
AcDbEntity
  8
roof
  6
ByLayer
 62
  256
370
   -1
100
AcDbLine
 10
180
 20
0
 11
170
 21
0
  0
LINE
  5
E2
100
AcDbEntity
  8
roof
  6
ByLayer
 62
  256
370
   -1
100
AcDbLine
 10
170
 20
0
 11
148
 21
183
  0
LINE
  5
E3
100
AcDbEntity
  8
roof
  6
ByLayer
 62
  256
370
   -1
100
AcDbLine
 10
230
 20
0
 11
240
 21
0
  0
LINE
  5
E4
100
AcDbEntity
  8
roof
  6
ByLayer
 62
  256
370
   -1
100
AcDbLine
 10
240
 20
0
 11
262
 21
183
  0
LINE
  5
E5
100
AcDbEntity
  8
roof
  6
ByLayer
 62
  256
370
   -1
100
AcDbLine
 10
180
 20
0
 11
180
 21
-10
  0
LINE
  5
E6
100
AcDbEntity
  8
roof
  6
ByLayer
 62
  256
370
   -1
100
AcDbLine
 10
180
 20
-10
 11
230
 21
-10
  0
LINE
  5
E7
100
AcDbEntity
  8
roof
  6
ByLayer
 62
  256
370
   -1
100
AcDbLine
 10
230
 20
-10
 11
230
 21
0
  0
LINE
  5
E8
100
AcDbEntity
  8
folds
  6
ByLayer
 62
  256
370
   -1
100
AcDbLine
 10
148
 20
183
 11
180
 21
0
  0
LINE
  5
E9
100
AcDbEntity
  8
folds
  6
ByLayer
 62
  256
370
   -1
100
AcDbLine
 10
230
 20
0
 11
262
 21
183
  0
LINE
  5
EA
100
AcDbEntity
  8
folds
  6
ByLayer
 62
  256
370
   -1
100
AcDbLine
 10
180
 20
0
 11
230
 21
0
  0
LINE
  5
EB
100
AcDbEntity
  8
folds
  6
ByLayer
 62
  256
370
   -1
100
AcDbLine
 10
-15
 20
180
 11
0
 21
0
  0
LINE
  5
EC
100
AcDbEntity
  8
folds
  6
ByLayer
 62
  256
370
   -1
100
AcDbLine
 10
50
 20
0
 11
65
 21
180
  0
LINE
  5
ED
100
AcDbEntity
  8
folds
  6
ByLayer
 62
  256
370
   -1
100
AcDbLine
 10
0
 20
0
 11
50
 21
0
  0
LINE
  5
EE
100
AcDbEntity
  8
folds
  6
ByLayer
 62
  256
370
   -1
100
AcDbLine
 10
25
 20
210
 11
-15
 21
180
  0
LINE
  5
EF
100
AcDbEntity
  8
folds
  6
ByLayer
 62
  256
370
   -1
100
AcDbLine
 10
65
 20
180
 11
25
 21
210
  0
LINE
  5
F0
100
AcDbEntity
  8
roof
  6
ByLayer
 62
  256
370
   -1
100
AcDbLine
 10
280
 20
0
 11
330
 21
0
  0
LINE
  5
F1
100
AcDbEntity
  8
roof
  6
ByLayer
 62
  256
370
   -1
100
AcDbLine
 10
330
 20
0
 11
330
 21
57
  0
LINE
  5
F2
100
AcDbEntity
  8
roof
  6
ByLayer
 62
  256
370
   -1
100
AcDbLine
 10
330
 20
57
 11
280
 21
0
  0
DIMENSION
  5
F3
100
AcDbEntity
  8
dimensions
  6
ByLayer
 62
  256
370
   -1
100
AcDbDimension
  2
*D7
 10
330
 20
-8
 30
0
 11
305
 21
-6.4375
 31
0
 70
   32
 71
    5
  3
Standard
 53
0
210
0
220
0
230
1
100
AcDbAlignedDimension
 13
280
 23
0
 33
0
 14
330
 24
0
 34
0
100
AcDbRotatedDimension
  0
DIMENSION
  5
F4
100
AcDbEntity
  8
dimensions
  6
ByLayer
 62
  256
370
   -1
100
AcDbDimension
  2
*D8
 10
340
 20
57
 30
0
 11
338.4375
 21
28.5
 31
0
 70
   32
 71
    5
  3
Standard
 53
0
210
0
220
0
230
1
100
AcDbAlignedDimension
 13
330
 23
0
 33
0
 14
330
 24
57
 34
0
 50
90
100
AcDbRotatedDimension
  0
DIMENSION
  5
F5
100
AcDbEntity
  8
dimensions
  6
ByLayer
 62
  256
370
   -1
100
AcDbDimension
  2
*D9
 10
148
 20
200
 30
0
 11
205
 21
201.5625
 31
0
 70
   32
 71
    5
  3
Standard
 53
0
210
0
220
0
230
1
100
AcDbAlignedDimension
 13
262
 23
183
 33
0
 14
148
 24
183
 34
0
100
AcDbRotatedDimension
  0
DIMENSION
  5
F6
100
AcDbEntity
  8
dimensions
  6
ByLayer
 62
  256
370
   -1
100
AcDbDimension
  2
*D10
 10
230
 20
-30
 30
0
 11
205
 21
-28.4375
 31
0
 70
   32
 71
    5
  3
Standard
 53
0
210
0
220
0
230
1
100
AcDbAlignedDimension
 13
180
 23
-10
 33
0
 14
230
 24
-10
 34
0
100
AcDbRotatedDimension
  0
DIMENSION
  5
F7
100
AcDbEntity
  8
dimensions
  6
ByLayer
 62
  256
370
   -1
100
AcDbDimension
  2
*D11
 10
240
 20
-30
 30
0
 11
235
 21
-28.4375
 31
0
 70
   32
 71
    5
  3
Standard
 53
0
210
0
220
0
230
1
100
AcDbAlignedDimension
 13
230
 23
0
 33
0
 14
240
 24
0
 34
0
100
AcDbRotatedDimension
  0
DIMENSION
  5
F8
100
AcDbEntity
  8
dimensions
  6
ByLayer
 62
  256
370
   -1
100
AcDbDimension
  2
*D12
 10
270
 20
-3.673940397442059e-15
 30
0
 11
268.4375
 21
91.5
 31
0
 70
   32
 71
    5
  3
Standard
 53
0
210
0
220
0
230
1
100
AcDbAlignedDimension
 13
262
 23
183
 33
0
 14
240
 24
0
 34
0
 50
90
100
AcDbRotatedDimension
  0
DIMENSION
  5
F9
100
AcDbEntity
  8
dimensions
  6
ByLayer
 62
  256
370
   -1
100
AcDbDimension
  2
*D13
 10
270
 20
-10.00000000000001
 30
0
 11
268.4375
 21
-5
 31
0
 70
   32
 71
    5
  3
Standard
 53
0
210
0
220
0
230
1
100
AcDbAlignedDimension
 13
230
 23
0
 33
0
 14
230
 24
-10
 34
0
 50
90
100
AcDbRotatedDimension
  0
POINT
  5
FA
100
AcDbEntity
  8
folds
  6
ByLayer
 62
  256
370
   -1
100
AcDbPoint
 10
180
 20
0
  0
LINE
  5
FB
100
AcDbEntity
  8
folds
  6
ByLayer
 62
  256
370
   -1
100
AcDbLine
 10
205
 20
0
 11
205
 21
183
  0
LINE
  5
FC
100
AcDbEntity
  8
seam allowance
  6
ByLayer
 62
  256
370
   -1
100
AcDbLine
 10
-25.96200334069368
 20
179.0864997216089
 11
-10.96200334069368
 21
-0.9135002783911261
  0
LINE
  5
FD
100
AcDbEntity
  8
seam allowance
  6
ByLayer
 62
  256
370
   -1
100
AcDbLine
 10
-2.020667218593133e-15
 20
-11
 11
50
 21
-11
  0
LINE
  5
FE
100
AcDbEntity
  8
seam allowance
  6
ByLayer
 62
  256
370
   -1
100
AcDbLine
 10
60.96200334069367
 20
-0.9135002783911426
 11
75.96200334069367
 21
179.0864997216088
  0
LINE
  5
FF
100
AcDbEntity
  8
seam allowance
  6
ByLayer
 62
  256
370
   -1
100
AcDbLine
 10
71.59999999999999
 20
188.8
 11
31.6
 21
218.8
  0
LINE
  5
100
100
AcDbEntity
  8
seam allowance
  6
ByLayer
 62
  256
370
   -1
100
AcDbLine
 10
18.40000000000001
 20
218.8
 11
-21.59999999999999
 21
188.8
  0
LINE
  5
101
100
AcDbEntity
  8
seam allowance
  6
ByLayer
 62
  256
370
   -1
100
AcDbLine
 10
169.0071488568774
 20
-0.119359153818017
 11
147.0071488568774
 21
182.880640846182
  0
LINE
  5
102
100
AcDbEntity
  8
seam allowance
  6
ByLayer
 62
  256
370
   -1
100
AcDbLine
 10
180
 20
-11
 11
230
 21
-11
  0
LINE
  5
103
100
AcDbEntity
  8
seam allowance
  6
ByLayer
 62
  256
370
   -1
100
AcDbLine
 10
240.9928511431226
 20
-0.1193591538180178
 11
262.9928511431226
 21
182.880640846182
  0
LINE
  5
104
100
AcDbEntity
  8
seam allowance
  6
ByLayer
 62
  256
370
   -1
100
AcDbLine
 10
262
 20
184
 11
148
 21
184
  0
LINE
  5
105
100
AcDbEntity
  8
seam allowance
  6
ByLayer
 62
  256
370
   -1
100
AcDbLine
 10
329.2482408871287
 20
57.65943781830813
 11
279.2482408871287
 21
0.6594378183081366
  0
LINE
  5
106
100
AcDbEntity
  8
seam allowance
  6
ByLayer
 62
  256
370
   -1
100
AcDbLine
 10
280
 20
-1
 11
330
 21
-1
  0
LINE
  5
107
100
AcDbEntity
  8
seam allowance
  6
ByLayer
 62
  256
370
   -1
100
AcDbLine
 10
331
 20
-2.449293598294706e-16
 11
331
 21
57
  0
LINE
  5
108
100
AcDbEntity
  8
seam allowance
  6
ByLayer
 62
  256
370
   -1
100
AcDbLine
 10
170
 20
-1
 11
169.0071488568774
 21
-0.119359153818017
  0
LINE
  5
109
100
AcDbEntity
  8
seam allowance
  6
ByLayer
 62
  256
370
   -1
100
AcDbLine
 10
180
 20
-11
 11
179
 21
-10
  0
LINE
  5
10A
100
AcDbEntity
  8
seam allowance
  6
ByLayer
 62
  256
370
   -1
100
AcDbLine
 10
230
 20
-11
 11
231
 21
-10
  0
LINE
  5
10B
100
AcDbEntity
  8
seam allowance
  6
ByLayer
 62
  256
370
   -1
100
AcDbLine
 10
240
 20
-1
 11
240.9928511431226
 21
-0.1193591538180178
  0
LINE
  5
10C
100
AcDbEntity
  8
seam allowance
  6
ByLayer
 62
  256
370
   -1
100
AcDbLine
 10
262
 20
184
 11
262.9928511431226
 21
182.880640846182
  0
LINE
  5
10D
100
AcDbEntity
  8
seam allowance
  6
ByLayer
 62
  256
370
   -1
100
AcDbLine
 10
147.0071488568774
 20
182.880640846182
 11
148
 21
184
  0
LINE
  5
10E
100
AcDbEntity
  8
seam allowance
  6
ByLayer
 62
  256
370
   -1
100
AcDbLine
 10
18.40000000000001
 20
218.8
 11
19.80000000000001
 21
218.6
  0
LINE
  5
10F
100
AcDbEntity
  8
seam allowance
  6
ByLayer
 62
  256
370
   -1
100
AcDbLine
 10
30.2
 20
218.6
 11
31.6
 21
218.8
  0
LINE
  5
110
100
AcDbEntity
  8
seam allowance
  6
ByLayer
 62
  256
370
   -1
100
AcDbLine
 10
71.59999999999999
 20
188.8
 11
71.8
 21
187.4
  0
LINE
  5
111
100
AcDbEntity
  8
seam allowance
  6
ByLayer
 62
  256
370
   -1
100
AcDbLine
 10
75.04850306230253
 20
180.1660909597075
 11
75.96200334069367
 21
179.0864997216088
  0
LINE
  5
112
100
AcDbEntity
  8
seam allowance
  6
ByLayer
 62
  256
370
   -1
100
AcDbLine
 10
-25.96200334069368
 20
179.0864997216089
 11
-25.04850306230254
 21
180.1660909597075
  0
LINE
  5
113
100
AcDbEntity
  8
seam allowance
  6
ByLayer
 62
  256
370
   -1
100
AcDbLine
 10
-21.8
 20
187.4
 11
-21.59999999999999
 21
188.8
  0
LINE
  5
114
100
AcDbEntity
  8
seam allowance
  6
ByLayer
 62
  256
370
   -1
100
AcDbLine
 10
-10.96200334069368
 20
-0.9135002783911261
 11
-9.882412102595058
 21
-1.827000556782277
  0
LINE
  5
115
100
AcDbEntity
  8
seam allowance
  6
ByLayer
 62
  256
370
   -1
100
AcDbLine
 10
-1.000000000000001
 20
-10
 11
-2.020667218593133e-15
 21
-11
  0
LINE
  5
116
100
AcDbEntity
  8
seam allowance
  6
ByLayer
 62
  256
370
   -1
100
AcDbLine
 10
50
 20
-11
 11
51.00000000000001
 21
-10
  0
LINE
  5
117
100
AcDbEntity
  8
seam allowance
  6
ByLayer
 62
  256
370
   -1
100
AcDbLine
 10
59.88241210259505
 20
-1.827000556782281
 11
60.96200334069367
 21
-0.9135002783911426
  0
LINE
  5
118
100
AcDbEntity
  8
seam allowance
  6
ByLayer
 62
  256
370
   -1
100
AcDbLine
 10
329.2482408871287
 20
57.65943781830813
 11
331
 21
57
  0
LINE
  5
119
100
AcDbEntity
  8
seam allowance
  6
ByLayer
 62
  256
370
   -1
100
AcDbLine
 10
330
 20
-1
 11
331
 21
-2.449293598294706e-16
  0
LINE
  5
11A
100
AcDbEntity
  8
seam allowance
  6
ByLayer
 62
  256
370
   -1
100
AcDbLine
 10
280
 20
-1
 11
279.2482408871287
 21
0.6594378183081366
  0
LINE
  5
11B
100
AcDbEntity
  8
seam allowance
  6
ByLayer
 62
  256
370
   -1
100
AcDbLine
 10
30.2
 20
218.6
 11
24.99999999999994
 21
211.6666666666667
  0
LINE
  5
11C
100
AcDbEntity
  8
seam allowance
  6
ByLayer
 62
  256
370
   -1
100
AcDbLine
 10
19.80000000000001
 20
218.6
 11
24.99999999999994
 21
211.6666666666667
  0
LINE
  5
11D
100
AcDbEntity
  8
seam allowance
  6
ByLayer
 62
  256
370
   -1
100
AcDbLine
 10
71.8
 20
187.4
 11
66.88479968110539
 21
180.8463995748072
  0
LINE
  5
11E
100
AcDbEntity
  8
seam allowance
  6
ByLayer
 62
  256
370
   -1
100
AcDbLine
 10
75.04850306230253
 20
180.1660909597075
 11
66.88479968110539
 21
180.8463995748072
  0
LINE
  5
11F
100
AcDbEntity
  8
seam allowance
  6
ByLayer
 62
  256
370
   -1
100
AcDbLine
 10
-21.8
 20
187.4
 11
-16.88479968110551
 21
180.8463995748072
  0
LINE
  5
120
100
AcDbEntity
  8
seam allowance
  6
ByLayer
 62
  256
370
   -1
100
AcDbLine
 10
-25.04850306230254
 20
180.1660909597075
 11
-16.88479968110551
 21
180.8463995748072
  0
LINE
  5
121
100
AcDbEntity
  8
seam allowance
  6
ByLayer
 62
  256
370
   -1
100
AcDbLine
 10
-1.000000000000001
 20
-10
 11
-1
 21
-1.086799548232691
  0
LINE
  5
122
100
AcDbEntity
  8
seam allowance
  6
ByLayer
 62
  256
370
   -1
100
AcDbLine
 10
-9.882412102595058
 20
-1.827000556782277
 11
-1
 21
-1.086799548232691
  0
LINE
  5
123
100
AcDbEntity
  8
seam allowance
  6
ByLayer
 62
  256
370
   -1
100
AcDbLine
 10
59.88241210259505
 20
-1.827000556782281
 11
51.00000000000001
 21
-1.086799548232691
  0
LINE
  5
124
100
AcDbEntity
  8
seam allowance
  6
ByLayer
 62
  256
370
   -1
100
AcDbLine
 10
51.00000000000001
 20
-10
 11
51.00000000000001
 21
-1.086799548232691
  0
LINE
  5
125
100
AcDbEntity
  8
seam allowance
  6
ByLayer
 62
  256
370
   -1
100
AcDbLine
 10
179
 20
-1
 11
179
 21
-10
  0
LINE
  5
126
100
AcDbEntity
  8
seam allowance
  6
ByLayer
 62
  256
370
   -1
100
AcDbLine
 10
179
 20
-1
 11
170
 21
-1
  0
LINE
  5
127
100
AcDbEntity
  8
seam allowance
  6
ByLayer
 62
  256
370
   -1
100
AcDbLine
 10
231
 20
-1
 11
240
 21
-1
  0
LINE
  5
128
100
AcDbEntity
  8
seam allowance
  6
ByLayer
 62
  256
370
   -1
100
AcDbLine
 10
231
 20
-10
 11
231
 21
-1
  0
MTEXT
  5
129
100
AcDbEntity
  8
describtion
  6
ByLayer
 62
  256
370
   -1
100
AcDbMText
 10
290.2343750000358
 20
-11.40625000000202
 30
0
 40
5
 41
45.41666666666713
 71
    1
 72
    1
  1
2X \Ponce mirrored
  7

210
0
220
0
230
1
 50
0
 73
    2
 44
1
  0
POINT
  5
12A
100
AcDbEntity
  8
describtion
  6
ByLayer
 62
  256
370
   -1
100
AcDbPoint
 10
290.2343750000358
 20
-11.40625000000202
  0
MTEXT
  5
12B
100
AcDbEntity
  8
describtion
  6
ByLayer
 62
  256
370
   -1
100
AcDbMText
 10
16.79687500000207
 20
135.5468750000167
 30
0
 40
5
 41
15.55555555555556
 71
    1
 72
    1
  1
Floor
  7

210
0
220
0
230
1
 50
0
 73
    2
 44
1
  0
MTEXT
  5
12C
100
AcDbEntity
  8
describtion
  6
ByLayer
 62
  256
370
   -1
100
AcDbMText
 10
175.7812500000217
 20
158.5937500000196
 30
0
 40
5
 41
13.88888888888889
 71
    1
 72
    1
  1
Roof
  7

210
0
220
0
230
1
 50
0
 73
    2
 44
1
  0
MTEXT
  5
12D
100
AcDbEntity
  8
describtion
  6
ByLayer
 62
  256
370
   -1
100
AcDbMText
 10
293.9322916667033
 20
16.06770833333367
 30
0
 40
5
 41
34.30555555555602
 71
    1
 72
    1
  1
Roof\Pfront part
  7

210
0
220
0
230
1
 50
0
 73
    2
 44
1
  0
LINE
  5
12E
100
AcDbEntity
  8
help
  6
ByLayer
 62
  256
370
   -1
100
AcDbLine
 10
148
 20
183
 11
150
 21
130
  0
LWPOLYLINE
  5
12F
100
AcDbEntity
  8
zipper
  6
ByLayer
 62
  256
370
   -1
100
AcDbPolyline
 90
   14
 70
    0
 43
0
 10
160.5120000000216
 20
99.5840000000134
 10
155.0080000000209
 20
141.184000000019
 10
160.6400000000216
 20
150.9120000000203
 10
169.0880000000228
 20
159.3600000000214
 10
183.6800000000247
 20
169.3440000000228
 10
196.9920000000265
 20
174.4640000000235
 10
209.4080000000282
 20
176.7680000000238
 10
221.1840000000298
 20
176.8960000000238
 10
232.5760000000313
 20
170.880000000023
 10
242.5600000000327
 20
164.9920000000222
 10
248.3200000000334
 20
156.032000000021
 10
252.928000000034
 20
147.5840000000199
 10
252.928000000034
 20
147.5840000000199
 10
255.1040000000343
 20
137.8560000000186
  0
ENDSEC
  0
SECTION
  2
OBJECTS
  0
DICTIONARY
  5
C
330
0
100
AcDbDictionary
281
    1
  3
ACAD_GROUP
350
D
  0
DICTIONARY
  5
D
330
C
100
AcDbDictionary
281
    1
  0
ENDSEC
  0
EOF
